<svg xmlns="http://www.w3.org/2000/svg" width="24" height="25">
    <path fill="currentColor" d="M20.75.25H3.25A1.75 1.75 0 001.5 2v3.5c0 .966.784 1.75 1.75 1.75h7.875v5.399l-2.266-2.267-1.234 1.243L12 16l4.375-4.375-1.234-1.234-2.266 2.258V7.25h7.875A1.75 1.75 0 0022.5 5.5V2A1.75 1.75 0 0020.75.25zm0 5.25H3.25V2h17.5v3.5zM5.875 4.625a.875.875 0 100-1.75.875.875 0 000 1.75zm0-1.75a.875.875 0 100 1.75.875.875 0 000-1.75zM20.75 19.5V23H3.25v-3.5h17.5zm0-1.75H3.25A1.75 1.75 0 001.5 19.5V23c0 .966.784 1.75 1.75 1.75h17.5A1.75 1.75 0 0022.5 23v-3.5a1.75 1.75 0 00-1.75-1.75zm-2.625 4.375a.875.875 0 100-1.75.875.875 0 000 1.75zm0-1.75a.875.875 0 100 1.75.875.875 0 000-1.75z"/>
</svg>
