<svg width="24" height="24" xmlns="http://www.w3.org/2000/svg">
    <path fill="currentColor" d="M20.75 3.25v3.5H3.25v-3.5h17.5zm0-1.75H3.25A1.75 1.75 0 001.5 3.25v3.5c0 .966.784 1.75 1.75 1.75h17.5a1.75 1.75 0 001.75-1.75v-3.5a1.75 1.75 0 00-1.75-1.75zM6.75 12v8.75h-3.5V12h3.5zm0-1.75h-3.5A1.75 1.75 0 001.5 12v8.75c0 .966.784 1.75 1.75 1.75h3.5a1.75 1.75 0 001.75-1.75V12a1.75 1.75 0 00-1.75-1.75zm14 1.75v8.75H12V12h8.75zm0-1.75H12A1.75 1.75 0 0010.25 12v8.75c0 .966.784 1.75 1.75 1.75h8.75a1.75 1.75 0 001.75-1.75V12a1.75 1.75 0 00-1.75-1.75z"/>
</svg>
