<svg xmlns="http://www.w3.org/2000/svg" width="20" height="20">
    <path fill="none" stroke="currentColor" d="M4.23 4.23a6.357 6.357 0 014.36-1.865 6.357 6.357 0 014.44 1.66 6.357 6.357 0 012.067 4.267 6.362 6.362 0 01-1.752 4.852l4.699 4.724-4.9-4.523a6.362 6.362 0 01-4.852 1.752 6.357 6.357 0 01-4.267-2.066 6.357 6.357 0 01-1.66-4.442A6.357 6.357 0 014.23 4.23zm8.851 8.851a6.106 6.106 0 001.794-4.331 6.106 6.106 0 00-1.794-4.331A6.106 6.106 0 008.75 2.625a6.106 6.106 0 00-4.331 1.794A6.106 6.106 0 002.625 8.75c0 1.691.686 3.223 1.794 4.331a6.106 6.106 0 004.331 1.794 6.106 6.106 0 004.331-1.794z"/>
</svg>
